# xmcd
#
# Track frame offsets: 
#        150
#        19812
#        33575
#        47112
#        58395
#        76922
#        89647
#        107147
#        128260
#        147122
#        164122
#        184665
#        207987
#        227217
#        242205
#        264570
#        292350
#
# Disc length: 4290 seconds
#
# Revision: 2
# Processed by: cddbd v1.5.2PL0 Copyright (c) Steve Scherf et al.
# Submitted via: ExactAudioCopy v0.99pb5
#
DISCID=0410c011
DTITLE=Various Artist - Blue Guitar
DYEAR=2009
DGENRE=Blues
TTITLE0=Jammin' In Four - Charlie Christian
TTITLE1=Jimmy's Blues - Jimmy Shirley
TTITLE2=Tiny's Boogie Woogie - Time Grimes
TTITLE3=Strollin' With Bones - T Bone Walker
TTITLE4=Lover - Tal Farlow
TTITLE5=Boo Boo Be Doop - Sal Salvador
TTITLE6=Seven Comes Eleven - Jim Hall
TTITLE7=Cheetah - Kenny Burrell
TTITLE8=Wes' Tune - Wes Montgomery
TTITLE9=Night And Day - Joe Pass
TTITLE10=Come Sunrise - Grant Green
TTITLE11=The Shadow Of Your Smile - Earl Klugh
TTITLE12=Jack Rabbit - Bireli Lagrene
TTITLE13=Coral - Al Di Meola
TTITLE14=Flower Power - John Scofield
TTITLE15=90 Minute Cigarette - John Hart
TTITLE16=Jumpin' Jack - Stanley Jordan
EXTD=
EXTT0=Charlie Christian  4:18\n
EXTT1=Jimmy Shirley  3:00\n
EXTT2=Tiny Grimes  2:57\n
EXTT3=T-Bone Walker  2:27\n
EXTT4=Tal Farlow  4:04\n
EXTT5=Sal Salvador  2:47\n
EXTT6=Jim Hall  3:50\n
EXTT7=Kenny Burrel  4:39\n
EXTT8=Wes Montgomery  4:08\n
EXTT9=Joe Pass  3:44\n
EXTT10=Grant Green  4:32\n
EXTT11=Earl Klugh  5:07\n
EXTT12=Bireli Lagrene  4:16\n
EXTT13=Al Di Meola  3:19\n
EXTT14=John Scofield  4:59\n
EXTT15=John Hart  6:09\n
EXTT16=Stanley Jordan  6:31\n
PLAYORDER=
